<svg width="48" height="48" viewBox="0 0 48 48" fill="none" xmlns="http://www.w3.org/2000/svg">
<path d="M40.1001 21.2601L30.7601 17.2401L28.6801 16.3601C28.3601 16.2001 28.0801 15.7801 28.0801 15.4201V9.30012C28.0801 7.38012 26.6601 5.10012 24.9401 4.22012C24.3401 3.92012 23.6201 3.92012 23.0201 4.22012C21.3201 5.10012 19.9001 7.40012 19.9001 9.32012V15.4401C19.9001 15.8001 19.6201 16.2201 19.3001 16.3801L7.90012 21.2801C6.64012 21.8001 5.62012 23.3801 5.62012 24.7401V27.3801C5.62012 29.0801 6.90012 29.9201 8.48012 29.2401L18.5001 24.9201C19.2801 24.5801 19.9201 25.0001 19.9201 25.8601V28.0801V31.6801C19.9201 32.1401 19.6601 32.8001 19.3401 33.1201L14.7001 37.7801C14.2201 38.2601 14.0001 39.2001 14.2201 39.8801L15.1201 42.6001C15.4801 43.7801 16.8201 44.3401 17.9201 43.7801L22.6801 39.7801C23.4001 39.1601 24.5801 39.1601 25.3001 39.7801L30.0601 43.7801C31.1601 44.3201 32.5001 43.7801 32.9001 42.6001L33.8001 39.8801C34.0201 39.2201 33.8001 38.2601 33.3201 37.7801L28.6801 33.1201C28.3401 32.8001 28.0801 32.1401 28.0801 31.6801V25.8601C28.0801 25.0001 28.7001 24.6001 29.5001 24.9201L39.5201 29.2401C41.1001 29.9201 42.3801 29.0801 42.3801 27.3801V24.7401C42.3801 23.3801 41.3601 21.8001 40.1001 21.2601Z" fill="#2563EB"/>
</svg>
