<svg width="24" height="24" viewBox="0 0 24 24" fill="none" xmlns="http://www.w3.org/2000/svg">
<path opacity="0.4" d="M19.0711 4.92889C15.1658 1.02364 8.83417 1.02364 4.92893 4.92889C1.02369 8.83413 1.02369 15.1658 4.92893 19.071C8.83418 22.9763 15.1658 22.9763 19.0711 19.071C22.9763 15.1658 22.9763 8.83413 19.0711 4.92889Z" fill="#93C5FD"/>
<path d="M9.4828 9.52507C9.4828 9.93519 9.82221 10.2746 10.2323 10.2746L12.6648 10.2746L8.99489 13.9445C8.70498 14.2344 8.70498 14.7152 8.99489 15.0051C9.28481 15.2951 9.76564 15.2951 10.0556 15.0051L13.7254 11.3353L13.7254 13.7677C13.7254 14.1778 14.0648 14.5172 14.475 14.5172C14.8851 14.5172 15.2245 14.1778 15.2245 13.7677L15.2245 9.52507C15.2245 9.31294 15.1396 9.12909 15.0053 8.99474C14.8709 8.86039 14.6871 8.77554 14.475 8.77554L10.2323 8.77554C9.82221 8.77554 9.4828 9.11495 9.4828 9.52507Z" fill="#2563EB"/>
</svg>
