<svg width="17" height="17" viewBox="0 0 17 17" fill="none" xmlns="http://www.w3.org/2000/svg">
<path d="M12.4809 7.61458C12.1763 7.61458 11.9355 7.36667 11.9355 7.06917C11.9355 6.80708 11.6734 6.26167 11.2342 5.78708C10.8022 5.32667 10.3276 5.0575 9.93091 5.0575C9.62633 5.0575 9.3855 4.80958 9.3855 4.51208C9.3855 4.21458 9.63342 3.96667 9.93091 3.96667C10.6392 3.96667 11.383 4.34917 12.0347 5.03625C12.6438 5.68083 13.0334 6.48125 13.0334 7.06208C13.0334 7.36667 12.7855 7.61458 12.4809 7.61458Z" fill="#2563EB"/>
<path d="M15.038 7.61458C14.7334 7.61458 14.4926 7.36666 14.4926 7.06916C14.4926 4.55458 12.4455 2.51458 9.93799 2.51458C9.63341 2.51458 9.39258 2.26666 9.39258 1.96916C9.39258 1.67166 9.63341 1.41666 9.93091 1.41666C13.0476 1.41666 15.5834 3.9525 15.5834 7.06916C15.5834 7.36666 15.3355 7.61458 15.038 7.61458Z" fill="#2563EB"/>
<path d="M7.82716 10.5896L6.51675 11.9C6.2405 12.1762 5.80133 12.1762 5.518 11.9071C5.44008 11.8292 5.36216 11.7583 5.28425 11.6804C4.55466 10.9437 3.89591 10.1717 3.308 9.36416C2.72716 8.55666 2.25966 7.74916 1.91966 6.94875C1.58675 6.14125 1.41675 5.36916 1.41675 4.6325C1.41675 4.15083 1.50175 3.69041 1.67175 3.26541C1.84175 2.83333 2.11091 2.43666 2.48633 2.0825C2.93966 1.63625 3.4355 1.41666 3.95966 1.41666C4.158 1.41666 4.35633 1.45916 4.53341 1.54416C4.71758 1.62916 4.8805 1.75666 5.008 1.94083L6.65133 4.25708C6.77883 4.43416 6.87091 4.59708 6.93466 4.75291C6.99841 4.90166 7.03383 5.05041 7.03383 5.185C7.03383 5.355 6.98425 5.525 6.88508 5.68791C6.793 5.85083 6.65841 6.02083 6.48841 6.19083L5.95008 6.75041C5.87216 6.82833 5.83675 6.92041 5.83675 7.03375C5.83675 7.09041 5.84383 7.14 5.858 7.19666C5.87925 7.25333 5.9005 7.29583 5.91466 7.33833C6.04216 7.57208 6.26175 7.87666 6.57341 8.245C6.89216 8.61333 7.23216 8.98875 7.6005 9.36416C7.67133 9.435 7.74925 9.50583 7.82008 9.57666C8.10341 9.85291 8.1105 10.3062 7.82716 10.5896Z" fill="#2563EB"/>
<path d="M15.5621 12.9837C15.5621 13.1821 15.5267 13.3875 15.4559 13.5858C15.4346 13.6425 15.4134 13.6992 15.385 13.7558C15.2646 14.0108 15.1088 14.2517 14.9034 14.4783C14.5563 14.8608 14.1738 15.1371 13.7417 15.3142C13.7346 15.3142 13.7275 15.3212 13.7205 15.3212C13.3025 15.4912 12.8492 15.5833 12.3605 15.5833C11.638 15.5833 10.8659 15.4133 10.0513 15.0662C9.23672 14.7192 8.42213 14.2517 7.61463 13.6638C7.33838 13.4583 7.06213 13.2529 6.80005 13.0333L9.1163 10.7171C9.31463 10.8658 9.49172 10.9792 9.64047 11.0571C9.67588 11.0712 9.71838 11.0925 9.76797 11.1137C9.82463 11.135 9.8813 11.1421 9.94505 11.1421C10.0655 11.1421 10.1575 11.0996 10.2355 11.0217L10.7738 10.4904C10.9509 10.3133 11.1209 10.1787 11.2838 10.0937C11.4467 9.99458 11.6096 9.945 11.7867 9.945C11.9213 9.945 12.063 9.97333 12.2188 10.0371C12.3746 10.1008 12.5375 10.1929 12.7146 10.3133L15.0592 11.9779C15.2434 12.1054 15.3709 12.2542 15.4488 12.4312C15.5196 12.6083 15.5621 12.7854 15.5621 12.9837Z" fill="#2563EB"/>
</svg>
