<svg width="48" height="48" viewBox="0 0 48 48" fill="none" xmlns="http://www.w3.org/2000/svg">
<path d="M43.06 21.74L40.02 18.7C39.5 18.18 39.08 17.16 39.08 16.44V12.12C39.08 10.36 37.64 8.92001 35.88 8.92001H31.58C30.86 8.92001 29.84 8.50001 29.32 7.98001L26.28 4.94001C25.04 3.70001 23 3.70001 21.76 4.94001L18.68 7.98001C18.18 8.50001 17.16 8.92001 16.42 8.92001H12.12C10.36 8.92001 8.92001 10.36 8.92001 12.12V16.42C8.92001 17.14 8.50001 18.16 7.98001 18.68L4.94001 21.72C3.70001 22.96 3.70001 25 4.94001 26.24L7.98001 29.28C8.50001 29.8 8.92001 30.82 8.92001 31.54V35.84C8.92001 37.6 10.36 39.04 12.12 39.04H16.42C17.14 39.04 18.16 39.46 18.68 39.98L21.72 43.02C22.96 44.26 25 44.26 26.24 43.02L29.28 39.98C29.8 39.46 30.82 39.04 31.54 39.04H35.84C37.6 39.04 39.04 37.6 39.04 35.84V31.54C39.04 30.82 39.46 29.8 39.98 29.28L43.02 26.24C44.32 25.02 44.32 22.98 43.06 21.74ZM16 18C16 16.9 16.9 16 18 16C19.1 16 20 16.9 20 18C20 19.1 19.12 20 18 20C16.9 20 16 19.1 16 18ZM19.06 31.06C18.76 31.36 18.38 31.5 18 31.5C17.62 31.5 17.24 31.36 16.94 31.06C16.36 30.48 16.36 29.52 16.94 28.94L28.94 16.94C29.52 16.36 30.48 16.36 31.06 16.94C31.64 17.52 31.64 18.48 31.06 19.06L19.06 31.06ZM30 32C28.88 32 27.98 31.1 27.98 30C27.98 28.9 28.88 28 29.98 28C31.08 28 31.98 28.9 31.98 30C31.98 31.1 31.1 32 30 32Z" fill="#2563EB"/>
</svg>
