<svg width="210" height="37" viewBox="0 0 210 37" fill="none" xmlns="http://www.w3.org/2000/svg">
<path d="M203.353 20.0211C202.249 20.0211 201.266 19.7874 200.405 19.3199C199.543 18.8391 198.863 18.1846 198.365 17.3565C197.867 16.5283 197.618 15.5867 197.618 14.5315C197.618 13.463 197.867 12.5213 198.365 11.7065C198.863 10.8784 199.543 10.2306 200.405 9.76314C201.266 9.29565 202.249 9.0619 203.353 9.0619C204.47 9.0619 205.459 9.29565 206.321 9.76314C207.196 10.2306 207.875 10.8717 208.36 11.6865C208.858 12.5013 209.107 13.4496 209.107 14.5315C209.107 15.5867 208.858 16.5283 208.36 17.3565C207.875 18.1846 207.196 18.8391 206.321 19.3199C205.459 19.7874 204.47 20.0211 203.353 20.0211ZM203.353 17.8774C203.972 17.8774 204.524 17.7438 205.008 17.4767C205.493 17.2095 205.87 16.8222 206.139 16.3146C206.422 15.8071 206.563 15.2127 206.563 14.5315C206.563 13.837 206.422 13.2426 206.139 12.7484C205.87 12.2408 205.493 11.8535 205.008 11.5863C204.524 11.3192 203.978 11.1856 203.373 11.1856C202.753 11.1856 202.202 11.3192 201.717 11.5863C201.246 11.8535 200.869 12.2408 200.586 12.7484C200.304 13.2426 200.162 13.837 200.162 14.5315C200.162 15.2127 200.304 15.8071 200.586 16.3146C200.869 16.8222 201.246 17.2095 201.717 17.4767C202.202 17.7438 202.747 17.8774 203.353 17.8774Z" fill="#F59E0B"/>
<path d="M190.225 19.8809V9.18212H192.628V12.1273L192.345 11.2658C192.668 10.5445 193.173 9.99688 193.859 9.62289C194.559 9.2489 195.427 9.0619 196.464 9.0619V11.4461C196.356 11.4194 196.255 11.406 196.161 11.406C196.067 11.3927 195.973 11.386 195.878 11.386C194.923 11.386 194.162 11.6665 193.597 12.2275C193.031 12.7751 192.749 13.5965 192.749 14.6918V19.8809H190.225Z" fill="#F59E0B"/>
<path d="M176.112 19.8809V5.85626H181.927C183.179 5.85626 184.249 6.05661 185.138 6.45732C186.04 6.85802 186.733 7.43236 187.217 8.18034C187.702 8.92832 187.944 9.81655 187.944 10.845C187.944 11.8735 187.702 12.7617 187.217 13.5097C186.733 14.2577 186.04 14.832 185.138 15.2327C184.249 15.6334 183.179 15.8338 181.927 15.8338H177.566L178.737 14.6116V19.8809H176.112ZM178.737 14.8921L177.566 13.6299H181.806C182.964 13.6299 183.832 13.3895 184.411 12.9086C185.003 12.4144 185.299 11.7266 185.299 10.845C185.299 9.95011 185.003 9.26224 184.411 8.7814C183.832 8.30055 182.964 8.06013 181.806 8.06013H177.566L178.737 6.77788V14.8921Z" fill="#F59E0B"/>
<path d="M160.193 31.8964C158.128 31.8964 156.318 31.4936 154.764 30.688C153.233 29.8593 152.038 28.7315 151.18 27.3044C150.345 25.8772 149.927 24.2545 149.927 22.4361C149.927 20.5946 150.333 18.9719 151.145 17.5678C151.98 16.1407 153.117 15.0243 154.555 14.2187C156.017 13.4131 157.676 13.0102 159.531 13.0102C161.341 13.0102 162.953 13.4015 164.368 14.1842C165.783 14.9668 166.897 16.0716 167.709 17.4987C168.521 18.9258 168.927 20.6061 168.927 22.5397C168.927 22.7238 168.915 22.931 168.892 23.1611C168.892 23.3913 168.88 23.61 168.857 23.8171H153.372V20.9514H166.56L164.855 21.8491C164.878 20.7903 164.658 19.8581 164.194 19.0524C163.73 18.2468 163.092 17.6138 162.28 17.1535C161.492 16.6931 160.575 16.4629 159.531 16.4629C158.464 16.4629 157.525 16.6931 156.713 17.1535C155.924 17.6138 155.298 18.2583 154.834 19.087C154.393 19.8926 154.173 20.8478 154.173 21.9527V22.6432C154.173 23.7481 154.428 24.7264 154.938 25.578C155.449 26.4297 156.168 27.0857 157.096 27.546C158.024 28.0064 159.091 28.2366 160.297 28.2366C161.341 28.2366 162.28 28.0755 163.115 27.7532C163.951 27.431 164.693 26.9246 165.342 26.234L167.674 28.8926C166.839 29.8593 165.783 30.6074 164.507 31.1368C163.255 31.6432 161.816 31.8964 160.193 31.8964Z" fill="#2563EB"/>
<path d="M144.317 31.8964C142.275 31.8964 140.698 31.3785 139.584 30.3427C138.471 29.2839 137.914 27.7302 137.914 25.6816V9.14322H142.264V25.578C142.264 26.4527 142.484 27.1317 142.925 27.6151C143.389 28.0985 144.027 28.3401 144.838 28.3401C145.813 28.3401 146.625 28.0869 147.274 27.5806L148.492 30.6534C147.982 31.0678 147.355 31.3785 146.613 31.5857C145.871 31.7928 145.105 31.8964 144.317 31.8964ZM134.852 16.8082V13.3555H147.239V16.8082H134.852Z" fill="#2563EB"/>
<path d="M121.502 31.8964C119.924 31.8964 118.532 31.6087 117.326 31.0332C116.12 30.4348 115.18 29.5371 114.507 28.3401C113.835 27.1202 113.498 25.5895 113.498 23.7481V13.2174H117.848V23.1611C117.848 24.8184 118.219 26.0614 118.961 26.89C119.727 27.6956 120.806 28.0985 122.198 28.0985C123.218 28.0985 124.1 27.8913 124.842 27.477C125.608 27.0626 126.199 26.4412 126.617 25.6125C127.057 24.7839 127.278 23.7596 127.278 22.5396V13.2174H131.627V31.6547H127.487V26.6829L128.217 28.202C127.591 29.399 126.675 30.3197 125.468 30.9642C124.262 31.5857 122.94 31.8964 121.502 31.8964Z" fill="#2563EB"/>
<path d="M99.5611 31.8964C97.6589 31.8964 95.9655 31.4936 94.4808 30.688C92.9962 29.8593 91.8247 28.7315 90.9663 27.3044C90.108 25.8772 89.6789 24.2545 89.6789 22.4361C89.6789 20.5946 90.108 18.9719 90.9663 17.5678C91.8247 16.1407 92.9962 15.0243 94.4808 14.2187C95.9655 13.4131 97.6589 13.0102 99.5611 13.0102C101.487 13.0102 103.192 13.4131 104.676 14.2187C106.184 15.0243 107.356 16.1292 108.191 17.5333C109.049 18.9373 109.478 20.5716 109.478 22.4361C109.478 24.2545 109.049 25.8772 108.191 27.3044C107.356 28.7315 106.184 29.8593 104.676 30.688C103.192 31.4936 101.487 31.8964 99.5611 31.8964ZM99.5611 28.2021C100.628 28.2021 101.579 27.9719 102.414 27.5115C103.25 27.0512 103.899 26.3836 104.363 25.509C104.85 24.6343 105.094 23.61 105.094 22.4361C105.094 21.2391 104.85 20.2148 104.363 19.3632C103.899 18.4885 103.25 17.821 102.414 17.3606C101.579 16.9003 100.64 16.6701 99.5959 16.6701C98.5288 16.6701 97.5777 16.9003 96.7426 17.3606C95.9307 17.821 95.2811 18.4885 94.794 19.3632C94.3068 20.2148 94.0633 21.2391 94.0633 22.4361C94.0633 23.61 94.3068 24.6343 94.794 25.509C95.2811 26.3836 95.9307 27.0512 96.7426 27.5115C97.5777 27.9719 98.5172 28.2021 99.5611 28.2021Z" fill="#2563EB"/>
<path d="M66.1755 31.6547V7.48593H76.197C78.3544 7.48593 80.1986 7.8312 81.7297 8.52174C83.2839 9.21227 84.4786 10.202 85.3138 11.491C86.1489 12.78 86.5664 14.3107 86.5664 16.0831C86.5664 17.8555 86.1489 19.3862 85.3138 20.6752C84.4786 21.9412 83.2839 22.9194 81.7297 23.61C80.1986 24.2775 78.3544 24.6113 76.197 24.6113H68.6809L70.6991 22.5742V31.6547H66.1755ZM82.1125 31.6547L75.9534 22.8849H80.7902L86.984 31.6547H82.1125ZM70.6991 23.0575L68.6809 20.9169H75.9882C77.9832 20.9169 79.4795 20.491 80.477 19.6394C81.4977 18.7877 82.0081 17.6023 82.0081 16.0831C82.0081 14.5409 81.4977 13.3555 80.477 12.5269C79.4795 11.6982 77.9832 11.2839 75.9882 11.2839H68.6809L70.6991 9.07417V23.0575Z" fill="#2563EB"/>
<path d="M47.1855 27.546L47.2899 22.1253L56.9982 13.2174H62.2177L53.9709 21.4348L51.6743 23.3338L47.1855 27.546ZM43.6362 31.6547V6.0358H47.9858V31.6547H43.6362ZM57.6593 31.6547L50.874 23.3338L53.6229 19.8811L62.9484 31.6547H57.6593Z" fill="#2563EB"/>
<path d="M33.5778 31.6547V6.0358H37.9274V31.6547H33.5778Z" fill="#2563EB"/>
<path d="M23.5193 31.6547V13.2174H27.8689V31.6547H23.5193ZM25.7115 10.179C24.8996 10.179 24.2269 9.92583 23.6933 9.41944C23.183 8.91304 22.9278 8.30307 22.9278 7.58951C22.9278 6.85294 23.183 6.24297 23.6933 5.75959C24.2269 5.2532 24.8996 5 25.7115 5C26.5235 5 27.1846 5.24169 27.695 5.72506C28.2285 6.18542 28.4953 6.77238 28.4953 7.48593C28.4953 8.24552 28.2401 8.89002 27.7297 9.41944C27.2194 9.92583 26.5467 10.179 25.7115 10.179Z" fill="#2563EB"/>
<path d="M9.6039 32C7.70168 32 5.88065 31.7353 4.14081 31.2059C2.40098 30.6535 1.0207 29.9514 0 29.0998L1.56585 25.6125C2.54016 26.3721 3.74645 27.0051 5.18472 27.5115C6.62298 28.0179 8.09605 28.2711 9.6039 28.2711C10.8798 28.2711 11.9121 28.133 12.7008 27.8568C13.4895 27.5806 14.0695 27.2123 14.4407 26.7519C14.8118 26.2685 14.9974 25.7276 14.9974 25.1292C14.9974 24.3926 14.7306 23.8056 14.1971 23.3683C13.6635 22.9079 12.9676 22.5512 12.1093 22.298C11.2741 22.0217 10.3346 21.7685 9.29073 21.5384C8.27003 21.3082 7.23773 21.0435 6.19382 20.7443C5.17312 20.422 4.23361 20.0192 3.37529 19.5358C2.54016 19.0294 1.85583 18.3619 1.32228 17.5333C0.788727 16.7046 0.521951 15.6458 0.521951 14.3568C0.521951 13.0448 0.869919 11.8478 1.56585 10.766C2.28499 9.66113 3.36369 8.78645 4.80195 8.14195C6.26342 7.47443 8.10764 7.14067 10.3346 7.14067C11.7961 7.14067 13.246 7.32481 14.6842 7.6931C16.1225 8.06139 17.3752 8.5908 18.4423 9.28134L17.0156 12.7685C15.9253 12.124 14.8002 11.6522 13.6403 11.3529C12.4804 11.0307 11.3669 10.8696 10.2998 10.8696C9.04716 10.8696 8.02645 11.0192 7.23773 11.3184C6.4722 11.6177 5.90385 12.009 5.53268 12.4923C5.18472 12.9757 5.01073 13.5281 5.01073 14.1496C5.01073 14.8862 5.26591 15.4847 5.77626 15.945C6.30981 16.3824 6.99415 16.7276 7.82927 16.9808C8.68759 17.234 9.6387 17.4872 10.6826 17.7404C11.7265 17.9706 12.7588 18.2353 13.7795 18.5345C14.8234 18.8338 15.7629 19.2251 16.5981 19.7084C17.4564 20.1918 18.1407 20.8478 18.6511 21.6765C19.1846 22.5051 19.4514 23.5524 19.4514 24.8184C19.4514 26.1074 19.0918 27.3044 18.3727 28.4092C17.6768 29.4911 16.5981 30.3657 15.1366 31.0333C13.6751 31.6778 11.8309 32 9.6039 32Z" fill="#2563EB"/>
</svg>
