<svg width="30" height="30" viewBox="0 0 30 30" fill="none" xmlns="http://www.w3.org/2000/svg">
<rect width="30" height="30" rx="15" fill="#2563EB"/>
<path d="M19.1852 12.8789C22.1756 12.879 24.6001 14.9277 24.6002 17.4541C24.6 18.9363 23.7641 20.252 22.4703 21.0879L22.9303 22.835L21.1676 21.71C20.5536 21.9142 19.8851 22.0283 19.1852 22.0283C16.1949 22.0282 13.7705 19.9803 13.7701 17.4541C13.7703 14.9277 16.1948 12.879 19.1852 12.8789ZM13.3219 7.7998C16.5397 7.7998 19.2277 9.68452 19.8873 12.2012C19.6138 12.1678 19.3345 12.1494 19.0504 12.1494C15.7368 12.1494 13.0505 14.5 13.0504 17.3994C13.0504 17.9583 13.1507 18.4968 13.3356 19.002C13.3311 19.002 13.3264 19.0029 13.3219 19.0029C12.322 19.0029 11.374 18.8185 10.5211 18.4922L8.70081 19.5L9.23889 17.8496C7.63519 16.8259 6.60022 15.2149 6.60022 13.4014C6.6003 10.3078 9.60964 7.79995 13.3219 7.7998ZM17.3551 15.1162C16.8582 15.1164 16.4548 15.5197 16.4547 16.0166C16.4549 16.5134 16.8583 16.9159 17.3551 16.916C17.852 16.916 18.2553 16.5135 18.2555 16.0166C18.2554 15.5197 17.852 15.1163 17.3551 15.1162ZM20.7906 15.1162C20.2938 15.1164 19.8904 15.5197 19.8903 16.0166C19.8905 16.5134 20.2939 16.9159 20.7906 16.916C21.2876 16.916 21.6908 16.5135 21.691 16.0166C21.6909 15.5196 21.2876 15.1162 20.7906 15.1162ZM11.1002 10.0498C10.5204 10.0499 10.0504 10.5197 10.0504 11.0996C10.0504 11.6795 10.5204 12.1494 11.1002 12.1494C11.6801 12.1494 12.15 11.6795 12.15 11.0996C12.15 10.5197 11.6801 10.0498 11.1002 10.0498ZM15.6002 10.0498C15.0204 10.0499 14.5504 10.5197 14.5504 11.0996C14.5504 11.6795 15.0204 12.1494 15.6002 12.1494C16.1801 12.1494 16.65 11.6795 16.65 11.0996C16.65 10.5197 16.1801 10.0498 15.6002 10.0498Z" fill="white"/>
</svg>
