<svg width="100" height="100" viewBox="0 0 100 100" fill="none" xmlns="http://www.w3.org/2000/svg">
<circle cx="50" cy="50" r="50" fill="white"/>
<path d="M35.5591 64.48C33.3191 64.48 31.1724 64.1867 29.1191 63.6C27.0657 62.9867 25.4124 62.2 24.1591 61.24L26.3591 56.36C27.5591 57.2133 28.9724 57.92 30.5991 58.48C32.2524 59.0133 33.9191 59.28 35.5991 59.28C36.8791 59.28 37.9057 59.16 38.6791 58.92C39.4791 58.6533 40.0657 58.2933 40.4391 57.84C40.8124 57.3867 40.9991 56.8667 40.9991 56.28C40.9991 55.5333 40.7057 54.9467 40.1191 54.52C39.5324 54.0667 38.7591 53.7067 37.7991 53.44C36.8391 53.1467 35.7724 52.88 34.5991 52.64C33.4524 52.3733 32.2924 52.0533 31.1191 51.68C29.9724 51.3067 28.9191 50.8267 27.9591 50.24C26.9991 49.6533 26.2124 48.88 25.5991 47.92C25.0124 46.96 24.7191 45.7333 24.7191 44.24C24.7191 42.64 25.1457 41.1867 25.9991 39.88C26.8791 38.5467 28.1857 37.4933 29.9191 36.72C31.6791 35.92 33.8791 35.52 36.5191 35.52C38.2791 35.52 40.0124 35.7333 41.7191 36.16C43.4257 36.56 44.9324 37.1733 46.2391 38L44.2391 42.92C42.9324 42.1733 41.6257 41.6267 40.3191 41.28C39.0124 40.9067 37.7324 40.72 36.4791 40.72C35.2257 40.72 34.1991 40.8667 33.3991 41.16C32.5991 41.4533 32.0257 41.84 31.6791 42.32C31.3324 42.7733 31.1591 43.3067 31.1591 43.92C31.1591 44.64 31.4524 45.2267 32.0391 45.68C32.6257 46.1067 33.3991 46.4533 34.3591 46.72C35.3191 46.9867 36.3724 47.2533 37.5191 47.52C38.6924 47.7867 39.8524 48.0933 40.9991 48.44C42.1724 48.7867 43.2391 49.2533 44.1991 49.84C45.1591 50.4267 45.9324 51.2 46.5191 52.16C47.1324 53.12 47.4391 54.3333 47.4391 55.8C47.4391 57.3733 46.9991 58.8133 46.1191 60.12C45.2391 61.4267 43.9191 62.48 42.1591 63.28C40.4257 64.08 38.2257 64.48 35.5591 64.48ZM51.8669 64V36H63.9869C66.4935 36 68.6535 36.4133 70.4669 37.24C72.2802 38.04 73.6802 39.2 74.6669 40.72C75.6535 42.24 76.1469 44.0533 76.1469 46.16C76.1469 48.24 75.6535 50.04 74.6669 51.56C73.6802 53.0533 72.2802 54.2 70.4669 55C68.6535 55.8 66.4935 56.2 63.9869 56.2H55.4669L58.3469 53.36V64H51.8669ZM69.6669 64L62.6669 53.84H69.5869L76.6669 64H69.6669ZM58.3469 54.08L55.4669 51.04H63.6269C65.6269 51.04 67.1202 50.6133 68.1069 49.76C69.0935 48.88 69.5869 47.68 69.5869 46.16C69.5869 44.6133 69.0935 43.4133 68.1069 42.56C67.1202 41.7067 65.6269 41.28 63.6269 41.28H55.4669L58.3469 38.2V54.08Z" fill="#2563EB"/>
</svg>
